# XSI Wavefront OBJ Export v3.0
# File Created: Wed Sep 05 23:55:54 2012
# XSI Version: 10.0.422.0
o cube
# Hierarchy (from self to top father)
g cube

#begin 8 vertices
v -4.000000 -4.000000 -4.000000
v 4.000000 -4.000000 -4.000000
v -4.000000 4.000000 -4.000000
v 4.000000 4.000000 -4.000000
v -4.000000 -4.000000 4.000000
v 4.000000 -4.000000 4.000000
v -4.000000 4.000000 4.000000
v 4.000000 4.000000 4.000000
#end 8 vertices

#begin 24 normals
vn 0.000000 0.000000 -1.000000
vn 0.000000 0.000000 -1.000000
vn 0.000000 0.000000 -1.000000
vn 0.000000 0.000000 -1.000000
vn 0.000000 0.000000 1.000000
vn 0.000000 0.000000 1.000000
vn 0.000000 0.000000 1.000000
vn 0.000000 0.000000 1.000000
vn -1.000000 0.000000 0.000000
vn -1.000000 0.000000 0.000000
vn -1.000000 -0.000000 -0.000000
vn -1.000000 0.000000 0.000000
vn 1.000000 0.000000 0.000000
vn 1.000000 0.000000 -0.000000
vn 1.000000 0.000000 0.000000
vn 1.000000 0.000000 0.000000
vn 0.000000 0.000000 1.000000
vn 0.000000 0.000000 1.000000
vn 1.000000 0.000000 0.000000
vn 1.000000 0.000000 0.000000
vn 0.000000 0.000000 -1.000000
vn 0.000000 0.000000 -1.000000
vn -1.000000 0.000000 0.000000
vn -1.000000 0.000000 0.000000
#end 24 vertex normals

#begin 8 faces
f 1//1 4//3 2//4 
f 5//8 6//7 7//5 
f 1//9 5//10 3//12 
f 2//13 8//15 6//16 
f 8//6 7//18 6//17 
f 4//14 8//20 2//19 
f 3//2 4//22 1//21 
f 7//11 3//24 5//23 
#end 8 faces
